<svg width="133" height="66" viewBox="0 0 133 66" fill="none" xmlns="http://www.w3.org/2000/svg">
<path fill-rule="evenodd" clip-rule="evenodd" d="M74.6438 9.64177H74.7597L74.7301 9.71353L74.6438 9.64177ZM66.4205 7.50738L67.4882 8.19185L67.9522 9.64177H68.4357L71.0027 10.1106L72.8988 9.76433L73.6227 10.4454L71.0027 10.9238L68.3633 10.4418H66.6555L65.8791 10.9238V12.691L64.1713 14.2975L65.1028 16.5467L64.6371 20.0811L65.8791 21.3663L67.4317 21.8482L67.7423 23.2941L67.4317 24.9007L67.7423 26.1859L68.3633 27.4711L69.2948 27.9531H69.8483L69.7521 28.1523L68.8455 28.6214L67.759 28.0591L66.9847 26.457L66.6133 24.9195L66.9258 23.3025L66.7478 22.4735L65.4463 22.0696L63.7935 20.3593L64.2817 16.6547L63.2208 14.0933L63.7983 13.55L62.9116 11.4011L64.8572 9.38041L64.8085 8.97497L64.1267 7.83862L64.7771 7.20728L66.4205 7.50738ZM70.3318 28.7531H72.9052L74.2465 28.0591L75.0207 26.457L75.3921 24.9195L75.0796 23.3025L75.2576 22.4735L76.5591 22.0696L78.2119 20.3593L77.7237 16.6547L78.7845 14.0933L76.9263 12.3452V10.4788L75.6155 9.66505L75.295 10.4418H75.3499L76.1263 10.9238V12.691L77.834 14.2975L76.9025 16.5467L77.3683 20.0811L76.1263 21.3663L74.5736 21.8482L74.2632 23.2941L74.5736 24.9007L74.2632 26.1859L73.6422 27.4711L72.7105 27.9531H70.7368L70.3564 28.7404L70.3318 28.7531ZM66.814 8.70993L64.8127 7.42702L65.5825 8.70993L65.7364 9.99281L66.1983 9.67209H67.1219L66.814 8.70993ZM64.3076 12.6868L63.8506 11.5793L65.0693 10.3135V12.0539L64.3076 12.6868Z" fill="white"/>
<path fill-rule="evenodd" clip-rule="evenodd" d="M74.6438 9.64177H74.7597L74.7301 9.71353L74.6438 9.64177ZM66.4205 7.50738L67.4882 8.19185L67.9522 9.64177H68.4357L71.0027 10.1106L72.8988 9.76433L73.6227 10.4454L71.0027 10.9238L68.3633 10.4418H66.6555L65.8791 10.9238V12.691L64.1713 14.2975L65.1028 16.5467L64.6371 20.0811L65.8791 21.3663L67.4317 21.8482L67.7423 23.2941L67.4317 24.9007L67.7423 26.1859L68.3633 27.4711L69.2948 27.9531H69.8483L69.7521 28.1523L68.8455 28.6214L67.759 28.0591L66.9847 26.457L66.6133 24.9195L66.9258 23.3025L66.7478 22.4735L65.4463 22.0696L63.7935 20.3593L64.2817 16.6547L63.2208 14.0933L63.7983 13.55L62.9116 11.4011L64.8572 9.38041L64.8085 8.97497L64.1267 7.83862L64.7771 7.20728L66.4205 7.50738ZM70.3318 28.7531H72.9052L74.2465 28.0591L75.0207 26.457L75.3921 24.9195L75.0796 23.3025L75.2576 22.4735L76.5591 22.0696L78.2119 20.3593L77.7237 16.6547L78.7845 14.0933L76.9263 12.3452V10.4788L75.6155 9.66505L75.295 10.4418H75.3499L76.1263 10.9238V12.691L77.834 14.2975L76.9025 16.5467L77.3683 20.0811L76.1263 21.3663L74.5736 21.8482L74.2632 23.2941L74.5736 24.9007L74.2632 26.1859L73.6422 27.4711L72.7105 27.9531H70.7368L70.3564 28.7404L70.3318 28.7531ZM66.814 8.70993L64.8127 7.42702L65.5825 8.70993L65.7364 9.99281L66.1983 9.67209H67.1219L66.814 8.70993ZM64.3076 12.6868L63.8506 11.5793L65.0693 10.3135V12.0539L64.3076 12.6868Z" fill="white"/>
<path fill-rule="evenodd" clip-rule="evenodd" d="M58.3792 9.64177H58.2633L58.2929 9.71353L58.3792 9.64177ZM66.6025 7.50738L65.5348 8.19185L65.0708 9.64177H64.5873L62.0203 10.1106L60.1242 9.76433L59.4002 10.4454L62.0203 10.9238L64.6597 10.4418H66.3675L67.1438 10.9238V12.691L68.8517 14.2975L67.9202 16.5467L68.3859 20.0811L67.1438 21.3663L65.5913 21.8482L65.2807 23.2941L65.5913 24.9007L65.2807 26.1859L64.6597 27.4711L63.7282 27.9531H63.1746L63.2709 28.1523L64.1774 28.6214L65.2641 28.0591L66.0382 26.457L66.4097 24.9195L66.0972 23.3025L66.2752 22.4735L67.5767 22.0696L69.2295 20.3593L68.7413 16.6547L69.8022 14.0933L69.2246 13.55L70.1114 11.4011L68.1658 9.38041L68.2145 8.97497L68.8962 7.83862L68.2459 7.20728L66.6025 7.50738ZM62.6912 28.7531H60.1178L58.7765 28.0591L58.0023 26.457L57.6309 24.9195L57.9434 23.3025L57.7654 22.4735L56.4639 22.0696L54.8111 20.3593L55.2993 16.6547L54.2385 14.0933L56.0967 12.3452V10.4788L57.4075 9.66505L57.728 10.4418H57.6731L56.8967 10.9238V12.691L55.189 14.2975L56.1205 16.5467L55.6547 20.0811L56.8967 21.3663L58.4494 21.8482L58.7598 23.2941L58.4494 24.9007L58.7598 26.1859L59.3809 27.4711L60.3125 27.9531H62.2862L62.6666 28.7404L62.6912 28.7531ZM66.209 8.70993L68.2102 7.42702L67.4406 8.70993L67.2866 9.99281L66.8247 9.67209H65.901L66.209 8.70993ZM68.7154 12.6868L69.1724 11.5793L67.9537 10.3135V12.0539L68.7154 12.6868Z" fill="white"/>
<path fill-rule="evenodd" clip-rule="evenodd" d="M74.3208 28.9215H75.019H76.4775H76.6721L76.8451 28.8321L77.6406 28.4204L77.8773 28.298L77.9933 28.058L78.5236 26.9605L78.5608 26.8835L78.5809 26.8003L78.846 25.7027L78.8868 25.5337L78.8539 25.3631L78.6197 24.1514L78.7523 23.5337L79.6314 23.2609L79.8271 23.2001L79.9695 23.0527L81.0302 21.9552L81.2985 21.6776L81.248 21.2947L80.8783 18.4892L81.5916 16.7666L81.803 16.2563L81.4007 15.8778L80.1943 14.7429V13.5796V13.1345L79.8162 12.8999L79.1531 12.4883L78.9594 12.368H78.7312H78.118L79.735 13.8892L79.3943 14.7118V15.0886L80.8525 16.4605L80.0571 18.3811L80.4549 21.3993L79.3943 22.4968L78.0683 22.9083L77.8033 24.143L78.0683 25.5149L77.8033 26.6125L77.273 27.7099L76.4775 28.1215H75.1049L74.8509 28.6473L74.3208 28.9215ZM77.8008 13.168L76.9911 12.4062L76.1263 12.5641V12.691L76.7373 13.2658L77.273 13.168H77.8008ZM72.973 27.8174L73.5607 28.1215H74.1262L72.973 28.7181L72.3975 28.4204L72.1608 28.2979L72.0449 28.058L71.9943 27.9532H72.7106L72.973 27.8174ZM73.6386 13.3275L72.7651 13.168H72.7554H71.7051H71.3724H71.3068L71.077 13.3107L70.9445 13.3929L70.7523 13.5122L70.6439 13.5796V13.6739V14.5447V15.0102V15.0886L69.1855 16.4605L69.981 18.3811L69.5832 21.3993L69.7431 21.5647L69.6932 22.6643L69.0079 21.9552L68.7396 21.6776L68.7901 21.2947L69.1599 18.4892L68.4464 16.7666L68.235 16.2563L68.6374 15.8778L68.7283 15.7923L68.5624 15.3903L68.1721 14.4445L67.9727 13.9611L68.3353 13.5845L69.376 12.5036L69.6486 12.2205L69.6166 11.9541L69.2998 11.4261L70.3475 11.6174L70.3905 11.6891L70.4141 11.8855L70.4264 11.9882L70.514 12.7185L70.522 12.7845L70.7523 12.6246L70.8745 12.5398L70.904 12.5193L70.9163 12.5107H71.2948H71.3068H71.7051L71.6595 12.368L71.4491 11.7107L71.4422 11.6891L71.403 11.664L72.226 11.5137L72.4671 12.2669L72.4994 12.368H72.7651H72.8376L72.9089 12.381L74.244 12.6249L73.6386 13.3275ZM70.2469 9.97262L71.5694 10.8204L71.0027 10.9238L69.9479 10.7313L69.7332 10.5936L69.7995 10.7041L69.4274 10.6361L70.1324 9.95166L70.2469 9.97262ZM68.9116 14.1393L69.1523 13.8893L69.7716 13.2461L69.8439 13.1711L69.9312 13.0804L69.9523 13.0585V13.0673V13.5796V14.1541V14.2118V14.5447L69.9463 14.5497L69.8439 14.6348L69.3019 15.0851L68.9823 14.3105L68.9116 14.1393Z" fill="white"/>
<path fill-rule="evenodd" clip-rule="evenodd" d="M58.7021 28.9215H58.0039H56.5455H56.3508L56.1779 28.8321L55.3824 28.4204L55.1456 28.298L55.0297 28.058L54.4994 26.9605L54.4621 26.8835L54.442 26.8003L54.1769 25.7027L54.1361 25.5337L54.1691 25.3631L54.4032 24.1514L54.2706 23.5337L53.3916 23.2609L53.1959 23.2001L53.0534 23.0527L51.9928 21.9552L51.7245 21.6776L51.7749 21.2947L52.1447 18.4892L51.4313 16.7666L51.22 16.2563L51.6223 15.8778L52.8287 14.7429V13.5796V13.1345L53.2068 12.8999L53.8698 12.4883L54.0636 12.368H54.2917H54.9049L53.288 13.8892L53.6287 14.7118V15.0886L52.1704 16.4605L52.9658 18.3811L52.5681 21.3993L53.6287 22.4968L54.9546 22.9083L55.2197 24.143L54.9546 25.5149L55.2197 26.6125L55.75 27.7099L56.5455 28.1215H57.918L58.1721 28.6473L58.7021 28.9215ZM55.2221 13.168L56.0318 12.4062L56.8967 12.5641V12.691L56.2857 13.2658L55.75 13.168H55.2221ZM60.05 27.8174L59.4623 28.1215H58.8968L60.05 28.7181L60.6254 28.4204L60.8621 28.2979L60.978 28.058L61.0287 27.9532H60.3124L60.05 27.8174ZM59.3844 13.3275L60.2578 13.168H60.2676H61.3178H61.6506H61.7162L61.946 13.3107L62.0785 13.3929L62.2706 13.5122L62.3791 13.5796V13.6739V14.5447V15.0102V15.0886L63.8375 16.4605L63.042 18.3811L63.4397 21.3993L63.2798 21.5647L63.3297 22.6643L64.015 21.9552L64.2833 21.6776L64.2328 21.2947L63.8632 18.4892L64.5766 16.7666L64.788 16.2563L64.3856 15.8778L64.2947 15.7923L64.4606 15.3903L64.8508 14.4445L65.0503 13.9611L64.6876 13.5845L63.6469 12.5036L63.3744 12.2205L63.4064 11.9541L63.7232 11.4261L62.6754 11.6174L62.6324 11.6891L62.6088 11.8855L62.5965 11.9882L62.5089 12.7185L62.501 12.7845L62.2706 12.6246L62.1485 12.5398L62.1189 12.5193L62.1066 12.5107H61.7281H61.7162H61.3178L61.3635 12.368L61.5738 11.7107L61.5808 11.6891L61.62 11.664L60.7969 11.5137L60.5559 12.2669L60.5236 12.368H60.2578H60.1853L60.114 12.381L58.7789 12.6249L59.3844 13.3275ZM62.7761 9.97262L61.4536 10.8204L62.0203 10.9238L63.075 10.7313L63.2897 10.5936L63.2234 10.7041L63.5956 10.6361L62.8905 9.95166L62.7761 9.97262ZM64.1113 14.1393L63.8706 13.8893L63.2513 13.2461L63.1791 13.1711L63.0917 13.0804L63.0706 13.0585V13.0673V13.5796V14.1541V14.2118V14.5447L63.0766 14.5497L63.1791 14.6348L63.7211 15.0851L64.0407 14.3105L64.1113 14.1393Z" fill="white"/>
<path fill-rule="evenodd" clip-rule="evenodd" d="M59.7 4.75356L59.892 6.35356L60.468 5.95356H61.62L61.236 4.75356L58.74 3.15356L59.7 4.75356ZM57.54 8.33221L58.11 9.71357L59.06 8.92421V6.75356L57.54 8.33221ZM60.0701 9.71869V7.51468L61.0383 6.91356H63.1683L66.46 7.51468L69.752 6.91356H71.8819L72.8502 7.51468V9.71869L74.98 11.7224L73.8183 14.5275L74.3993 18.9356L72.8502 20.5385L70.9137 21.1395L70.5266 22.9429L70.9137 24.9465L70.5266 26.5496L69.752 28.1524L68.5901 28.7536H66.46H64.3301L63.1683 28.1524L62.3937 26.5496L62.0064 24.9465L62.3937 22.9429L62.0064 21.1395L60.0701 20.5385L58.521 18.9356L59.1019 14.5275L57.94 11.7224L60.0701 9.71869ZM74.73 9.71357L75.3 8.33221L73.78 6.75356V8.92421L74.73 9.71357ZM72.4681 6.35356L72.66 4.75356L73.62 3.15356L71.1239 4.75356L70.74 5.95356H71.892L72.4681 6.35356Z" fill="white"/>
<path d="M0.92 60V57.68H2.76V48.32H0.92V46H6.68C8.56 46 9.98667 46.48 10.96 47.44C11.9467 48.3867 12.44 49.8 12.44 51.68V54.32C12.44 56.2 11.9467 57.62 10.96 58.58C9.98667 59.5267 8.56 60 6.68 60H0.92ZM5.4 57.6H6.72C7.78667 57.6 8.56667 57.32 9.06 56.76C9.55333 56.2 9.8 55.4133 9.8 54.4V51.6C9.8 50.5733 9.55333 49.7867 9.06 49.24C8.56667 48.68 7.78667 48.4 6.72 48.4H5.4V57.6ZM17.4003 60.28C16.6936 60.28 16.0603 60.16 15.5003 59.92C14.9403 59.6667 14.4936 59.3067 14.1603 58.84C13.8403 58.36 13.6803 57.78 13.6803 57.1C13.6803 56.42 13.8403 55.8533 14.1603 55.4C14.4936 54.9333 14.947 54.5867 15.5203 54.36C16.107 54.12 16.7736 54 17.5203 54H20.2403V53.44C20.2403 52.9733 20.0936 52.5933 19.8003 52.3C19.507 51.9933 19.0403 51.84 18.4003 51.84C17.7736 51.84 17.307 51.9867 17.0003 52.28C16.6936 52.56 16.4936 52.9267 16.4003 53.38L14.0803 52.6C14.2403 52.0933 14.4936 51.6333 14.8403 51.22C15.2003 50.7933 15.6736 50.4533 16.2603 50.2C16.8603 49.9333 17.587 49.8 18.4403 49.8C19.747 49.8 20.7803 50.1267 21.5403 50.78C22.3003 51.4333 22.6803 52.38 22.6803 53.62V57.32C22.6803 57.72 22.867 57.92 23.2403 57.92H24.0403V60H22.3603C21.867 60 21.4603 59.88 21.1403 59.64C20.8203 59.4 20.6603 59.08 20.6603 58.68V58.66H20.2803C20.227 58.82 20.107 59.0333 19.9203 59.3C19.7336 59.5533 19.4403 59.78 19.0403 59.98C18.6403 60.18 18.0936 60.28 17.4003 60.28ZM17.8403 58.24C18.547 58.24 19.1203 58.0467 19.5603 57.66C20.0136 57.26 20.2403 56.7333 20.2403 56.08V55.88H17.7003C17.2336 55.88 16.867 55.98 16.6003 56.18C16.3336 56.38 16.2003 56.66 16.2003 57.02C16.2003 57.38 16.3403 57.6733 16.6203 57.9C16.9003 58.1267 17.307 58.24 17.8403 58.24ZM25.4828 60V50.08H27.9628V51.2H28.3228C28.4695 50.8 28.7095 50.5067 29.0428 50.32C29.3895 50.1333 29.7895 50.04 30.2428 50.04H31.4428V52.28H30.2028C29.5628 52.28 29.0361 52.4533 28.6228 52.8C28.2095 53.1333 28.0028 53.6533 28.0028 54.36V60H25.4828ZM33.0125 60V46H35.5325V53.74H35.8925L39.1725 50.08H42.4525L37.8725 54.88L42.6125 60H39.3725L35.8925 56.06H35.5325V60H33.0125ZM48.4997 60V46H53.3997L55.8197 58.2H56.1797L58.5997 46H63.4997V60H60.9397V47.94H60.5797L58.1797 60H53.8197L51.4197 47.94H51.0597V60H48.4997ZM68.8964 60.28C68.1897 60.28 67.5564 60.16 66.9964 59.92C66.4364 59.6667 65.9897 59.3067 65.6564 58.84C65.3364 58.36 65.1764 57.78 65.1764 57.1C65.1764 56.42 65.3364 55.8533 65.6564 55.4C65.9897 54.9333 66.4431 54.5867 67.0164 54.36C67.6031 54.12 68.2697 54 69.0164 54H71.7364V53.44C71.7364 52.9733 71.5897 52.5933 71.2964 52.3C71.0031 51.9933 70.5364 51.84 69.8964 51.84C69.2697 51.84 68.8031 51.9867 68.4964 52.28C68.1897 52.56 67.9897 52.9267 67.8964 53.38L65.5764 52.6C65.7364 52.0933 65.9897 51.6333 66.3364 51.22C66.6964 50.7933 67.1697 50.4533 67.7564 50.2C68.3564 49.9333 69.0831 49.8 69.9364 49.8C71.2431 49.8 72.2764 50.1267 73.0364 50.78C73.7964 51.4333 74.1764 52.38 74.1764 53.62V57.32C74.1764 57.72 74.3631 57.92 74.7364 57.92H75.5364V60H73.8564C73.3631 60 72.9564 59.88 72.6364 59.64C72.3164 59.4 72.1564 59.08 72.1564 58.68V58.66H71.7764C71.7231 58.82 71.6031 59.0333 71.4164 59.3C71.2297 59.5533 70.9364 59.78 70.5364 59.98C70.1364 60.18 69.5897 60.28 68.8964 60.28ZM69.3364 58.24C70.0431 58.24 70.6164 58.0467 71.0564 57.66C71.5097 57.26 71.7364 56.7333 71.7364 56.08V55.88H69.1964C68.7297 55.88 68.3631 55.98 68.0964 56.18C67.8297 56.38 67.6964 56.66 67.6964 57.02C67.6964 57.38 67.8364 57.6733 68.1164 57.9C68.3964 58.1267 68.8031 58.24 69.3364 58.24ZM80.7789 60C80.1256 60 79.5922 59.8 79.1789 59.4C78.7789 58.9867 78.5789 58.44 78.5789 57.76V52.16H76.0989V50.08H78.5789V47H81.0989V50.08H83.2189V52.16H81.0989V57.32C81.0989 57.72 81.2856 57.92 81.6589 57.92H83.5789V60H80.7789ZM87.2989 60C86.6456 60 86.1122 59.8 85.6989 59.4C85.2989 58.9867 85.0989 58.44 85.0989 57.76V52.16H83.2189V50.08H85.0989V47H87.6189V50.08H90.3389V52.16H87.6189V57.32C87.6189 57.72 87.8056 57.92 88.1789 57.92H90.0989V60H87.2989ZM96.7434 60.28C95.7568 60.28 94.8834 60.0733 94.1234 59.66C93.3768 59.2333 92.7901 58.64 92.3634 57.88C91.9501 57.1067 91.7434 56.2 91.7434 55.16V54.92C91.7434 53.88 91.9501 52.98 92.3634 52.22C92.7768 51.4467 93.3568 50.8533 94.1034 50.44C94.8501 50.0133 95.7168 49.8 96.7034 49.8C97.6768 49.8 98.5234 50.02 99.2434 50.46C99.9634 50.8867 100.523 51.4867 100.923 52.26C101.323 53.02 101.523 53.9067 101.523 54.92V55.78H94.3034C94.3301 56.46 94.5834 57.0133 95.0634 57.44C95.5434 57.8667 96.1301 58.08 96.8234 58.08C97.5301 58.08 98.0501 57.9267 98.3834 57.62C98.7168 57.3133 98.9701 56.9733 99.1434 56.6L101.203 57.68C101.017 58.0267 100.743 58.4067 100.383 58.82C100.037 59.22 99.5701 59.5667 98.9834 59.86C98.3968 60.14 97.6501 60.28 96.7434 60.28ZM94.3234 53.9H98.9634C98.9101 53.3267 98.6768 52.8667 98.2634 52.52C97.8634 52.1733 97.3368 52 96.6834 52C96.0034 52 95.4634 52.1733 95.0634 52.52C94.6634 52.8667 94.4168 53.3267 94.3234 53.9ZM103.366 60V50.08H105.846V51.2H106.206C106.353 50.8 106.593 50.5067 106.926 50.32C107.273 50.1333 107.673 50.04 108.126 50.04H109.326V52.28H108.086C107.446 52.28 106.92 52.4533 106.506 52.8C106.093 53.1333 105.886 53.6533 105.886 54.36V60H103.366ZM120.894 60.28C119.748 60.28 118.761 60.0733 117.934 59.66C117.121 59.2333 116.494 58.6333 116.054 57.86C115.628 57.0733 115.414 56.1467 115.414 55.08V46H118.054V55.16C118.054 56.0133 118.294 56.6867 118.774 57.18C119.268 57.6733 119.974 57.92 120.894 57.92C121.814 57.92 122.514 57.6733 122.994 57.18C123.488 56.6867 123.734 56.0133 123.734 55.16V46H126.374V55.08C126.374 56.1467 126.154 57.0733 125.714 57.86C125.288 58.6333 124.661 59.2333 123.834 59.66C123.021 60.0733 122.041 60.28 120.894 60.28ZM128.532 60V46H131.172V60H128.532Z" fill="white"/>
</svg>
