<svg width="176" height="32" viewBox="0 0 176 32" fill="none" xmlns="http://www.w3.org/2000/svg">
<path fill-rule="evenodd" clip-rule="evenodd" d="M21.0175 8.81818H21.146L21.1131 8.89876L21.0175 8.81818ZM11.894 6.41995L13.0786 7.18898L13.5933 8.81818H14.1298L16.9778 9.34489L19.0814 8.95582L19.8847 9.72107L16.9778 10.2586L14.0495 9.71702H12.1546L11.2934 10.2586V12.2442L9.39859 14.0493L10.4321 16.5764L9.91533 20.5477L11.2934 21.9918L13.0159 22.5332L13.3604 24.1578L13.0159 25.963L13.3604 27.4071L14.0495 28.8511L15.083 29.3927H15.6971L15.5903 29.6165L14.5844 30.1435L13.3789 29.5118L12.5199 27.7116L12.1078 25.9842L12.4546 24.1673L12.2571 23.2359L10.8131 22.782L8.97938 20.8604L9.52107 16.6979L8.34402 13.8199L8.9848 13.2094L8.00098 10.795L10.1595 8.52448L10.1055 8.06889L9.34915 6.79214L10.0707 6.08276L11.894 6.41995ZM16.2333 30.2916H19.0886L20.5767 29.5119L21.4357 27.7116L21.8476 25.9842L21.501 24.1673L21.6984 23.2359L23.1425 22.782L24.9762 20.8603L24.4344 16.6978L25.6114 13.8199L23.5498 11.8557V9.75864L22.0955 8.84435L21.7399 9.71702H21.8008L22.6622 10.2586V12.2442L24.5568 14.0493L23.5234 16.5764L24.0403 20.5477L22.6622 21.9918L20.9396 22.5332L20.5952 24.1578L20.9396 25.963L20.5952 27.4071L19.9061 28.8511L18.8726 29.3927H16.6828L16.2608 30.2773L16.2333 30.2916ZM12.3306 7.77111L10.1102 6.32967L10.9642 7.77111L11.135 9.21257L11.6474 8.85218H12.6722L12.3306 7.77111ZM9.54983 12.2395L9.04276 10.9951L10.3949 9.57293V11.5284L9.54983 12.2395Z" fill="white"/>
<path fill-rule="evenodd" clip-rule="evenodd" d="M21.0175 8.81818H21.146L21.1131 8.89876L21.0175 8.81818ZM11.894 6.41995L13.0786 7.18898L13.5933 8.81818H14.1298L16.9778 9.34489L19.0814 8.95582L19.8847 9.72107L16.9778 10.2586L14.0495 9.71702H12.1546L11.2934 10.2586V12.2442L9.39859 14.0493L10.4321 16.5764L9.91533 20.5477L11.2934 21.9918L13.0159 22.5332L13.3604 24.1578L13.0159 25.963L13.3604 27.4071L14.0495 28.8511L15.083 29.3927H15.6971L15.5903 29.6165L14.5844 30.1435L13.3789 29.5118L12.5199 27.7116L12.1078 25.9842L12.4546 24.1673L12.2571 23.2359L10.8131 22.782L8.97938 20.8604L9.52107 16.6979L8.34402 13.8199L8.9848 13.2094L8.00098 10.795L10.1595 8.52448L10.1055 8.06889L9.34915 6.79214L10.0707 6.08276L11.894 6.41995ZM16.2333 30.2916H19.0886L20.5767 29.5119L21.4357 27.7116L21.8476 25.9842L21.501 24.1673L21.6984 23.2359L23.1425 22.782L24.9762 20.8603L24.4344 16.6978L25.6114 13.8199L23.5498 11.8557V9.75864L22.0955 8.84435L21.7399 9.71702H21.8008L22.6622 10.2586V12.2442L24.5568 14.0493L23.5234 16.5764L24.0403 20.5477L22.6622 21.9918L20.9396 22.5332L20.5952 24.1578L20.9396 25.963L20.5952 27.4071L19.9061 28.8511L18.8726 29.3927H16.6828L16.2608 30.2773L16.2333 30.2916ZM12.3306 7.77111L10.1102 6.32967L10.9642 7.77111L11.135 9.21257L11.6474 8.85218H12.6722L12.3306 7.77111ZM9.54983 12.2395L9.04276 10.9951L10.3949 9.57293V11.5284L9.54983 12.2395Z" fill="white"/>
<path fill-rule="evenodd" clip-rule="evenodd" d="M20.6591 30.4809H21.4337H23.0518H23.2678L23.4596 30.3804L24.3423 29.9179L24.6049 29.7803L24.7335 29.5107L25.3219 28.2776L25.3633 28.191L25.3856 28.0976L25.6796 26.8643L25.7249 26.6745L25.6883 26.4827L25.4286 25.1213L25.5757 24.4272L26.5509 24.1207L26.7681 24.0523L26.9261 23.8868L28.1029 22.6536L28.4006 22.3417L28.3445 21.9115L27.9343 18.7592L28.7258 16.8238L28.9603 16.2504L28.514 15.8251L27.1754 14.5499V13.2428V12.7428L26.756 12.4791L26.0204 12.0167L25.8054 11.8815H25.5523H24.8719L26.6659 13.5907L26.2879 14.5151V14.9384L27.9058 16.4799L27.0233 18.6378L27.4646 22.029L26.2879 23.2621L24.8169 23.7245L24.5227 25.1119L24.8169 26.6532L24.5227 27.8865L23.9344 29.1196L23.0518 29.5821H21.529L21.2471 30.1728L20.6591 30.4809ZM24.5201 12.7803L23.6217 11.9244L22.6622 12.1019V12.2444L23.34 12.8903L23.9344 12.7803H24.5201ZM19.1637 29.2404L19.8157 29.5821H20.4431L19.1637 30.2524L18.5252 29.9179L18.2627 29.7803L18.134 29.5107L18.0778 29.3929H18.8725L19.1637 29.2404ZM19.9021 12.9596L18.9332 12.7803H18.9223H17.757H17.3879H17.3151L17.0601 12.9407L16.9131 13.0331L16.7 13.1671L16.5797 13.2428V13.3488V14.3272V14.8503V14.9384L14.9616 16.4799L15.8441 18.6378L15.4029 22.029L15.5803 22.2149L15.525 23.4504L14.7647 22.6536L14.467 22.3417L14.5229 21.9115L14.9331 18.7592L14.1416 16.8238L13.9071 16.2504L14.3535 15.8251L14.4544 15.729L14.2703 15.2773L13.8373 14.2146L13.616 13.6715L14.0184 13.2483L15.173 12.0338L15.4753 11.7158L15.4399 11.4165L15.0885 10.8231L16.2509 11.0381L16.2986 11.1187L16.3248 11.3394L16.3384 11.4548L16.4356 12.2754L16.4444 12.3495L16.7 12.1698L16.8355 12.0745L16.8682 12.0514L16.882 12.0418H17.3019H17.3151H17.757L17.7064 11.8815L17.473 11.143L17.4654 11.1187L17.4219 11.0905L18.335 10.9216L18.6024 11.7679L18.6383 11.8815H18.9332H19.0135L19.0926 11.8961L20.5739 12.17L19.9021 12.9596ZM16.1392 9.19005L17.6065 10.1426L16.9777 10.2588L15.8076 10.0425L15.5693 9.88776L15.6429 10.012L15.2299 9.93558L16.0121 9.1665L16.1392 9.19005ZM14.6578 13.8718L14.9249 13.5909L15.6119 12.8682L15.6921 12.7839L15.789 12.6819L15.8124 12.6573V12.6672V13.2428V13.8884V13.9533V14.3272L15.8058 14.3328L15.6921 14.4284L15.0908 14.9344L14.7362 14.0641L14.6578 13.8718Z" fill="white"/>
<path fill-rule="evenodd" clip-rule="evenodd" d="M4.43796 3.32583L4.65097 5.12358L5.29003 4.67413H6.56813L6.1421 3.32583L3.37286 1.52808L4.43796 3.32583ZM2.0415 7.34681L2.6739 8.89886L3.72789 8.01198V5.57302L2.0415 7.34681ZM4.84848 8.90464V6.42819L5.92264 5.7528H8.28584L11.938 6.42819L15.5903 5.7528H17.9533L19.0276 6.42819V8.90464L21.3906 11.1559L20.1017 14.3078L20.7462 19.2607L19.0276 21.0617L16.8792 21.737L16.4496 23.7632L16.8792 26.0145L16.4496 27.8157L15.5903 29.6166L14.3012 30.2921H11.938H9.57488L8.28584 29.6166L7.42648 27.8157L6.99681 26.0145L7.42648 23.7632L6.99681 21.737L4.84848 21.0617L3.1298 19.2607L3.77431 14.3078L2.48529 11.1559L4.84848 8.90464ZM21.1132 8.89886L21.7456 7.34681L20.0593 5.57302V8.01198L21.1132 8.89886ZM18.6036 5.12358L18.8167 3.32583L19.8817 1.52808L17.1124 3.32583L16.6865 4.67413H17.9646L18.6036 5.12358Z" fill="white"/>
<path d="M38.92 23V20.68H40.76V11.32H38.92V9H44.68C46.56 9 47.9867 9.48 48.96 10.44C49.9467 11.3867 50.44 12.8 50.44 14.68V17.32C50.44 19.2 49.9467 20.62 48.96 21.58C47.9867 22.5267 46.56 23 44.68 23H38.92ZM43.4 20.6H44.72C45.7867 20.6 46.5667 20.32 47.06 19.76C47.5533 19.2 47.8 18.4133 47.8 17.4V14.6C47.8 13.5733 47.5533 12.7867 47.06 12.24C46.5667 11.68 45.7867 11.4 44.72 11.4H43.4V20.6ZM55.8003 23.28C55.0936 23.28 54.4603 23.16 53.9003 22.92C53.3403 22.6667 52.8936 22.3067 52.5603 21.84C52.2403 21.36 52.0803 20.78 52.0803 20.1C52.0803 19.42 52.2403 18.8533 52.5603 18.4C52.8936 17.9333 53.347 17.5867 53.9203 17.36C54.507 17.12 55.1736 17 55.9203 17H58.6403V16.44C58.6403 15.9733 58.4936 15.5933 58.2003 15.3C57.907 14.9933 57.4403 14.84 56.8003 14.84C56.1736 14.84 55.707 14.9867 55.4003 15.28C55.0936 15.56 54.8936 15.9267 54.8003 16.38L52.4803 15.6C52.6403 15.0933 52.8936 14.6333 53.2403 14.22C53.6003 13.7933 54.0736 13.4533 54.6603 13.2C55.2603 12.9333 55.987 12.8 56.8403 12.8C58.147 12.8 59.1803 13.1267 59.9403 13.78C60.7003 14.4333 61.0803 15.38 61.0803 16.62V20.32C61.0803 20.72 61.267 20.92 61.6403 20.92H62.4403V23H60.7603C60.267 23 59.8603 22.88 59.5403 22.64C59.2203 22.4 59.0603 22.08 59.0603 21.68V21.66H58.6803C58.627 21.82 58.507 22.0333 58.3203 22.3C58.1336 22.5533 57.8403 22.78 57.4403 22.98C57.0403 23.18 56.4936 23.28 55.8003 23.28ZM56.2403 21.24C56.947 21.24 57.5203 21.0467 57.9603 20.66C58.4136 20.26 58.6403 19.7333 58.6403 19.08V18.88H56.1003C55.6336 18.88 55.267 18.98 55.0003 19.18C54.7336 19.38 54.6003 19.66 54.6003 20.02C54.6003 20.38 54.7403 20.6733 55.0203 20.9C55.3003 21.1267 55.707 21.24 56.2403 21.24ZM64.2828 23V13.08H66.7628V14.2H67.1228C67.2695 13.8 67.5095 13.5067 67.8428 13.32C68.1895 13.1333 68.5895 13.04 69.0428 13.04H70.2428V15.28H69.0028C68.3628 15.28 67.8361 15.4533 67.4228 15.8C67.0095 16.1333 66.8028 16.6533 66.8028 17.36V23H64.2828ZM72.2125 23V9H74.7325V16.74H75.0925L78.3725 13.08H81.6525L77.0725 17.88L81.8125 23H78.5725L75.0925 19.06H74.7325V23H72.2125ZM88.4997 23V9H93.3997L95.8197 21.2H96.1797L98.5997 9H103.5V23H100.94V10.94H100.58L98.1797 23H93.8197L91.4197 10.94H91.0597V23H88.4997ZM109.296 23.28C108.59 23.28 107.956 23.16 107.396 22.92C106.836 22.6667 106.39 22.3067 106.056 21.84C105.736 21.36 105.576 20.78 105.576 20.1C105.576 19.42 105.736 18.8533 106.056 18.4C106.39 17.9333 106.843 17.5867 107.416 17.36C108.003 17.12 108.67 17 109.416 17H112.136V16.44C112.136 15.9733 111.99 15.5933 111.696 15.3C111.403 14.9933 110.936 14.84 110.296 14.84C109.67 14.84 109.203 14.9867 108.896 15.28C108.59 15.56 108.39 15.9267 108.296 16.38L105.976 15.6C106.136 15.0933 106.39 14.6333 106.736 14.22C107.096 13.7933 107.57 13.4533 108.156 13.2C108.756 12.9333 109.483 12.8 110.336 12.8C111.643 12.8 112.676 13.1267 113.436 13.78C114.196 14.4333 114.576 15.38 114.576 16.62V20.32C114.576 20.72 114.763 20.92 115.136 20.92H115.936V23H114.256C113.763 23 113.356 22.88 113.036 22.64C112.716 22.4 112.556 22.08 112.556 21.68V21.66H112.176C112.123 21.82 112.003 22.0333 111.816 22.3C111.63 22.5533 111.336 22.78 110.936 22.98C110.536 23.18 109.99 23.28 109.296 23.28ZM109.736 21.24C110.443 21.24 111.016 21.0467 111.456 20.66C111.91 20.26 112.136 19.7333 112.136 19.08V18.88H109.596C109.13 18.88 108.763 18.98 108.496 19.18C108.23 19.38 108.096 19.66 108.096 20.02C108.096 20.38 108.236 20.6733 108.516 20.9C108.796 21.1267 109.203 21.24 109.736 21.24ZM121.579 23C120.926 23 120.392 22.8 119.979 22.4C119.579 21.9867 119.379 21.44 119.379 20.76V15.16H116.899V13.08H119.379V10H121.899V13.08H124.019V15.16H121.899V20.32C121.899 20.72 122.086 20.92 122.459 20.92H124.379V23H121.579ZM128.099 23C127.446 23 126.912 22.8 126.499 22.4C126.099 21.9867 125.899 21.44 125.899 20.76V15.16H124.019V13.08H125.899V10H128.419V13.08H131.139V15.16H128.419V20.32C128.419 20.72 128.606 20.92 128.979 20.92H130.899V23H128.099ZM137.943 23.28C136.957 23.28 136.083 23.0733 135.323 22.66C134.577 22.2333 133.99 21.64 133.563 20.88C133.15 20.1067 132.943 19.2 132.943 18.16V17.92C132.943 16.88 133.15 15.98 133.563 15.22C133.977 14.4467 134.557 13.8533 135.303 13.44C136.05 13.0133 136.917 12.8 137.903 12.8C138.877 12.8 139.723 13.02 140.443 13.46C141.163 13.8867 141.723 14.4867 142.123 15.26C142.523 16.02 142.723 16.9067 142.723 17.92V18.78H135.503C135.53 19.46 135.783 20.0133 136.263 20.44C136.743 20.8667 137.33 21.08 138.023 21.08C138.73 21.08 139.25 20.9267 139.583 20.62C139.917 20.3133 140.17 19.9733 140.343 19.6L142.403 20.68C142.217 21.0267 141.943 21.4067 141.583 21.82C141.237 22.22 140.77 22.5667 140.183 22.86C139.597 23.14 138.85 23.28 137.943 23.28ZM135.523 16.9H140.163C140.11 16.3267 139.877 15.8667 139.463 15.52C139.063 15.1733 138.537 15 137.883 15C137.203 15 136.663 15.1733 136.263 15.52C135.863 15.8667 135.617 16.3267 135.523 16.9ZM144.966 23V13.08H147.446V14.2H147.806C147.953 13.8 148.193 13.5067 148.526 13.32C148.873 13.1333 149.273 13.04 149.726 13.04H150.926V15.28H149.686C149.046 15.28 148.52 15.4533 148.106 15.8C147.693 16.1333 147.486 16.6533 147.486 17.36V23H144.966ZM163.294 23.28C162.148 23.28 161.161 23.0733 160.334 22.66C159.521 22.2333 158.894 21.6333 158.454 20.86C158.028 20.0733 157.814 19.1467 157.814 18.08V9H160.454V18.16C160.454 19.0133 160.694 19.6867 161.174 20.18C161.668 20.6733 162.374 20.92 163.294 20.92C164.214 20.92 164.914 20.6733 165.394 20.18C165.888 19.6867 166.134 19.0133 166.134 18.16V9H168.774V18.08C168.774 19.1467 168.554 20.0733 168.114 20.86C167.688 21.6333 167.061 22.2333 166.234 22.66C165.421 23.0733 164.441 23.28 163.294 23.28ZM171.332 23V9H173.972V23H171.332Z" fill="white"/>
</svg>
